<?xml version="1.0" standalone="no"?>
<svg version="1.0" xmlns="http://www.w3.org/2000/svg"
 width="350" height="250" viewBox="0 0 350 250"
 preserveAspectRatio="xMidYMid meet">
<g transform="translate(0.000000,250.000000) scale(0.100000,-0.100000)" stroke="none">
<path d="M0 1250 l0 -1250 1860 0 1860 0 0 1250 0 1250 -1860 0 -1860 0 0
-1250z m1295 955 c119 -31 238 -116 300 -215 22 -35 25 -45 13 -55 -17 -16
-240 -189 -255 -199 -8 -4 -32 12 -65 47 -86 87 -167 97 -294 36 -119 -56
-227 -203 -276 -374 -19 -66 -23 -104 -23 -215 1 -118 4 -143 24 -195 30 -75
99 -148 156 -164 125 -35 207 -21 317 53 l68 45 74 -114 c93 -141 100 -156 89
-164 -5 -3 -33 -25 -63 -48 -77 -58 -186 -111 -282 -135 -105 -26 -286 -21
-388 11 -200 63 -347 225 -406 446 -29 107 -26 387 4 508 86 346 298 595 595
702 38 14 93 29 121 34 85 14 227 12 291 -4z m1099 -32 c88 -289 234 -812 262
-942 21 -94 41 -168 45 -164 3 5 12 87 19 183 15 225 27 304 97 653 l58 287
197 0 c153 0 198 -3 198 -13 0 -11 -312 -1580 -325 -1635 l-5 -22 -203 2 -202
3 -113 385 c-62 214 -129 467 -151 570 -41 202 -43 203 -56 20 -13 -179 -38
-345 -96 -640 -33 -168 -62 -313 -65 -322 -5 -16 -24 -18 -206 -18 l-200 0 5
23 c3 12 79 388 168 835 l162 812 203 0 c184 0 203 -2 208 -17z"/>
</g>
</svg>
